<svg viewBox="-744 -371 1488 742" width="1488" height="742" style="background-color: rgb(255, 255, 255);" xmlns="http://www.w3.org/2000/svg"><path d="M-199.33369226742963,15.066833284715036L-201.3381376385059,14.737433779809118M-201.3381376385059,-113.43168403731522L-201.3381376385059,14.737433779809118M-201.3381376385059,14.737433779809118L-228.57298967467258,42.78245880327048M-199.33369226742963,-113.1022845324093L-199.33369226742963,15.066833284715036M-199.33369226742963,15.066833284715036L-226.5685443035963,43.1118583081764M-76.88446987561848,35.18946362126532L-160.24700573438702,21.490123925698597M-160.24700573438705,-106.67899389142575L-160.24700573438702,21.490123925698597M-160.24700573438702,21.490123925698597L-187.4818577705537,49.53514894915995" style="fill:none;stroke:rgb(0,0,0);stroke-width:1;stroke-linecap:round"></path><path d="M-199.3336922674296,15.066833284715043L-201.3381376385059,14.737433779809122L-201.3381376385059,-113.43168403731522zM-228.57298967467256,42.78245880327048L-201.3381376385059,14.737433779809122L-199.3336922674296,15.066833284715043zM-199.33369226742963,-113.1022845324093L-199.3336922674296,15.066833284715043L-201.3381376385059,-113.43168403731522zM-226.56854430359627,43.1118583081764L-199.3336922674296,15.066833284715043L-199.33369226742963,-113.1022845324093z" style="fill:rgb(238,238,238); fill-opacity: 0.4"></path><path d="M-80.62269618916586,-0.3431846271727749L-163.9852320479344,-14.042524322739492M-163.9852320479344,-17.977283295965314L-163.9852320479344,-14.042524322739492M-163.9852320479344,-14.042524322739492L-165.58671814622113,-12.393397768222767" style="fill:none;stroke:rgb(0,0,0);stroke-width:1;stroke-linecap:round"></path><path d="M-226.56854430359627,43.1118583081764L-228.57298967467256,42.78245880327048L-199.3336922674296,15.066833284715043z" style="fill:rgb(238,238,238); fill-opacity: 0.4"></path><path d="M-80.62269618916586,-4.277943600398596L-163.9852320479344,-17.977283295965314M-163.9852320479344,-17.977283295965314L-165.58671814622113,-16.32815674144859" style="fill:none;stroke:rgb(0,0,0);stroke-width:1;stroke-linecap:round"></path><path d="M-163.9852320479344,-17.97728329596531L-163.9852320479344,-14.042524322739496L-165.58671814622113,-16.32815674144859zM-163.9852320479344,-14.042524322739496L-165.58671814622113,-12.393397768222771L-165.58671814622113,-16.32815674144859z" style="fill:rgb(153,221,255); fill-opacity: 0.4"></path><path d="M-76.88446987561846,35.18946362126531L-160.24700573438702,21.490123925698594L-160.24700573438702,-106.67899389142575z" style="fill:rgb(238,238,238); fill-opacity: 0.4"></path><path d="M-165.58671814622113,-16.32815674144859L-165.58671814622113,-12.393397768222767M-165.58671814622113,-12.393397768222767L-82.22418228745259,1.3059419273439483M-76.88446987561849,-92.97965419585903L-76.88446987561848,35.18946362126532M-76.88446987561848,35.18946362126532L-104.11932191178515,63.234488644726675" style="fill:none;stroke:rgb(0,0,0);stroke-width:1;stroke-linecap:round"></path><path d="M-187.48185777055366,49.53514894915995L-160.24700573438702,21.490123925698594L-76.88446987561846,35.18946362126531z" style="fill:rgb(238,238,238); fill-opacity: 0.4"></path><path d="M-165.58671814622113,-16.32815674144859L-82.22418228745259,-2.628817045881872" style="fill:none;stroke:rgb(0,0,0);stroke-width:1;stroke-linecap:round"></path><path d="M-80.62269618916586,-0.3431846271727787L-163.9852320479344,-14.042524322739496L-163.9852320479344,-17.97728329596531zM-165.58671814622113,-12.393397768222771L-163.9852320479344,-14.042524322739496L-80.62269618916586,-0.3431846271727787zM-165.58671814622113,-16.32815674144859L-82.22418228745258,-2.628817045881874L-163.9852320479344,-17.97728329596531zM-165.58671814622113,-16.32815674144859L-165.58671814622113,-12.393397768222771L-82.22418228745258,-2.628817045881874z" style="fill:rgb(153,221,255); fill-opacity: 0.4"></path><path d="M-199.33369226742963,-113.1022845324093L-201.3381376385059,-113.43168403731522M-201.3381376385059,-113.43168403731522L-228.57298967467258,-85.38665901385386M-209.91358730972718,-49.600457531557495L-211.91803268080346,-49.92985703646341M-211.91803268080346,-55.831995496302156L-211.91803268080346,-49.92985703646341M-211.91803268080346,-49.92985703646341L-214.32026182823353,-47.456167204688334M-199.33369226742963,-113.1022845324093L-226.5685443035963,-85.05725950894794M-210.91581677925336,-55.66729622355602L-210.91581677925336,-49.76515870183693M-210.91581677925336,-49.76515870183693L-213.31804583122747,-47.29146896835745M-210.91581677925336,-49.76515870183693L-172.02802393144248,-37.99575198313409M-209.91358730972718,-55.50259599139623L-209.91358730972718,-49.600457531557495M-209.91358730972718,-49.600457531557495L-212.31581645715724,-47.126767699782405" style="fill:none;stroke:rgb(0,0,0);stroke-width:1;stroke-linecap:round"></path><path d="M-201.3381376385059,-113.43168403731522L-201.3381376385059,14.737433779809122L-228.57298967467256,-85.38665901385386z" style="fill:rgb(238,238,238); fill-opacity: 0.4"></path><path d="M-209.91358730972715,-49.600457531557495L-211.9180326808034,-49.92985703646341L-211.9180326808034,-55.83199549630214zM-214.32026182823353,-47.456167204688334L-211.9180326808034,-49.92985703646341L-209.91358730972715,-49.600457531557495zM-209.91358730972715,-55.50259599139623L-209.91358730972715,-49.600457531557495L-211.9180326808034,-55.83199549630214z" style="fill:rgb(153,221,255); fill-opacity: 0.4"></path><path d="M-201.3381376385059,14.737433779809122L-228.57298967467256,42.78245880327048L-228.57298967467256,-85.38665901385386z" style="fill:rgb(238,238,238); fill-opacity: 0.4"></path><path d="M-209.91358730972718,-55.50259599139623L-211.91803268080346,-55.831995496302156M-211.91803268080346,-55.831995496302156L-214.32026182823353,-53.358305664527066M-210.91581677925336,-55.66729622355602L-213.31804583122747,-53.193606490076526M-210.91581677925336,-55.66729622355602L-172.02802393144248,-37.99575198313409" style="fill:none;stroke:rgb(0,0,0);stroke-width:1;stroke-linecap:round"></path><path d="M-210.9158099952653,-55.66729574384919L-210.9158099952653,-49.765157284010456L-213.3180391426954,-47.29146745223537z" style="fill:rgb(255,187,187); fill-opacity: 0.4"></path><path d="M-209.91358730972718,-55.50259599139623L-212.31581645715724,-53.028906159621144" style="fill:none;stroke:rgb(0,0,0);stroke-width:1;stroke-linecap:round"></path><path d="M-212.31581645715724,-47.126767699782405L-209.91358730972715,-49.600457531557495L-209.91358730972715,-55.50259599139623zM-211.9180326808034,-55.83199549630214L-211.9180326808034,-49.92985703646341L-214.32026182823353,-53.358305664527066z" style="fill:rgb(153,221,255); fill-opacity: 0.4"></path><path d="M-228.57298967467258,-85.38665901385386L-228.57298967467258,42.78245880327048M-228.57298967467258,42.78245880327048L-226.5685443035963,43.1118583081764" style="fill:none;stroke:rgb(0,0,0);stroke-width:1;stroke-linecap:round"></path><path d="M-212.31581645715724,-47.126767699782405L-214.32026182823353,-47.456167204688334L-209.91358730972715,-49.600457531557495zM-80.62269618916586,-4.277943600398597L-80.62269618916586,-0.3431846271727787L-163.9852320479344,-17.97728329596531zM-211.9180326808034,-49.92985703646341L-214.32026182823353,-47.456167204688334L-214.32026182823353,-53.358305664527066z" style="fill:rgb(153,221,255); fill-opacity: 0.4"></path><path d="M-226.5685443035963,-85.05725950894794L-226.5685443035963,43.1118583081764" style="fill:none;stroke:rgb(0,0,0);stroke-width:1;stroke-linecap:round"></path><path d="M-212.31581645715724,-53.02890615962114L-209.91358730972715,-55.50259599139623L-211.9180326808034,-55.83199549630214z" style="fill:rgb(153,221,255); fill-opacity: 0.4"></path><path d="M-214.32026182823353,-53.358305664527066L-214.32026182823353,-47.456167204688334M-214.32026182823353,-47.456167204688334L-212.31581645715724,-47.126767699782405" style="fill:none;stroke:rgb(0,0,0);stroke-width:1;stroke-linecap:round"></path><path d="M-82.22418228745258,1.3059419273439459L-165.58671814622113,-12.393397768222771L-80.62269618916586,-0.3431846271727787z" style="fill:rgb(153,221,255); fill-opacity: 0.4"></path><path d="M-210.9158099952653,-55.66729574384919L-213.3180391426954,-47.29146745223537L-213.3180391426954,-53.193605912074105z" style="fill:rgb(255,187,187); fill-opacity: 0.4"></path><path d="M-213.31804583122747,-47.29146896835745L-213.31804583122747,-53.193606490076526M-213.31804583122747,-47.29146896835745L-172.02802393144248,-37.99575198313409" style="fill:none;stroke:rgb(0,0,0);stroke-width:1;stroke-linecap:round"></path><path d="M-212.31581645715724,-53.02890615962114L-212.31581645715724,-47.126767699782405L-209.91358730972715,-55.50259599139623z" style="fill:rgb(153,221,255); fill-opacity: 0.4"></path><path d="M-212.31581645715724,-53.028906159621144L-212.31581645715724,-47.126767699782405" style="fill:none;stroke:rgb(0,0,0);stroke-width:1;stroke-linecap:round"></path><path d="M-82.22418228745258,-2.628817045881874L-80.62269618916586,-4.277943600398597L-163.9852320479344,-17.97728329596531z" style="fill:rgb(153,221,255); fill-opacity: 0.4"></path><path d="M-210.9158099952653,-49.765157284010456L-210.9158099952653,-55.66729574384919L-172.0280171474544,-37.995751000222995z" style="fill:rgb(255,187,187); fill-opacity: 0.4"></path><path d="M-214.32026182823353,-53.358305664527066L-212.31581645715724,-53.02890615962114L-211.9180326808034,-55.83199549630214zM-214.32026182823353,-47.456167204688334L-212.31581645715724,-47.126767699782405L-212.31581645715724,-53.02890615962114z" style="fill:rgb(153,221,255); fill-opacity: 0.4"></path><path d="M-213.3180391426954,-47.29146745223537L-210.9158099952653,-49.765157284010456L-172.0280171474544,-37.995751000222995z" style="fill:rgb(255,187,187); fill-opacity: 0.4"></path><path d="M-214.32026182823353,-53.358305664527066L-214.32026182823353,-47.456167204688334L-212.31581645715724,-53.02890615962114zM-165.58671814622113,-12.393397768222771L-82.22418228745258,1.3059419273439459L-82.22418228745258,-2.628817045881874z" style="fill:rgb(153,221,255); fill-opacity: 0.4"></path><path d="M-214.32026182823353,-53.358305664527066L-212.31581645715724,-53.028906159621144M-213.31804583122747,-53.193606490076526L-172.02802393144248,-37.99575198313409" style="fill:none;stroke:rgb(0,0,0);stroke-width:1;stroke-linecap:round"></path><path d="M-210.9158099952653,-55.66729574384919L-213.3180391426954,-53.193605912074105L-172.0280171474544,-37.995751000222995zM-213.3180391426954,-53.193605912074105L-213.3180391426954,-47.29146745223537L-172.0280171474544,-37.995751000222995z" style="fill:rgb(255,187,187); fill-opacity: 0.4"></path><path d="M43.791812675002454,51.50151215096587L-39.57072318376609,37.80217245539916M-39.5707231837661,-76.70094374216477L-39.57072318376609,37.80217245539916M-39.57072318376609,37.80217245539916L-61.25524657236639,60.1317595685416M-80.62269684702409,-4.277944675643664L-80.62269684702409,-0.34318570241784496M-80.62269684702409,-0.34318570241784496L-82.2241829453108,1.3059408520988798M-80.62269684702409,-0.34318570241784496L-43.184673073916464,-6.277353014214321M-80.62269618916586,-4.277943600398596L-80.62269618916586,-0.3431846271727749M-80.62269618916586,-0.3431846271727749L-82.22418228745259,1.3059419273439483M-76.88446987561849,-92.97965419585903L-160.24700573438705,-106.67899389142575M-160.24700573438705,-106.67899389142575L-187.4818577705537,-78.63396886796438M-80.62269684702409,-4.277944675643664L-82.2241829453108,-2.6288181211269426M-80.62269684702409,-4.277944675643664L-43.184673073916464,-6.277353014214321M-80.62269618916586,-4.277943600398596L-82.22418228745259,-2.628817045881872" style="fill:none;stroke:rgb(0,0,0);stroke-width:1;stroke-linecap:round"></path><path d="M-82.22418228745258,1.3059419273439459L-80.62269618916586,-0.3431846271727787L-80.62269618916586,-4.277943600398597z" style="fill:rgb(153,221,255); fill-opacity: 0.4"></path><path d="M-80.62269439211106,-4.277943305080513L-80.62269439211106,-0.3431843318546953L-82.22418049039777,1.3059422226620294z" style="fill:rgb(255,187,187); fill-opacity: 0.4"></path><path d="M-76.88446987561848,-92.97965419585903L-76.88446987561846,35.18946362126531L-160.24700573438702,-106.67899389142575zM-160.24700573438702,-106.67899389142575L-160.24700573438702,21.490123925698594L-187.4818577705537,-78.63396886796438z" style="fill:rgb(238,238,238); fill-opacity: 0.4"></path><path d="M-82.22418228745258,-2.628817045881874L-82.22418228745258,1.3059419273439459L-80.62269618916586,-4.277943600398597z" style="fill:rgb(153,221,255); fill-opacity: 0.4"></path><path d="M-80.62269439211106,-4.277943305080513L-82.22418049039777,1.3059422226620294L-82.22418049039777,-2.6288167505637903z" style="fill:rgb(255,187,187); fill-opacity: 0.4"></path><path d="M-82.2241829453108,1.3059408520988798L-82.2241829453108,-2.6288181211269426M-82.2241829453108,1.3059408520988798L-43.184673073916464,-6.277353014214321M-82.22418228745259,-2.628817045881872L-82.22418228745259,1.3059419273439483" style="fill:none;stroke:rgb(0,0,0);stroke-width:1;stroke-linecap:round"></path><path d="M-160.24700573438702,21.490123925698594L-187.48185777055366,49.53514894915995L-187.4818577705537,-78.63396886796438zM-104.11932191178515,63.234488644726675L-187.48185777055366,49.53514894915995L-76.88446987561846,35.18946362126531z" style="fill:rgb(238,238,238); fill-opacity: 0.4"></path><path d="M-82.2241829453108,-2.6288181211269426L-43.184673073916464,-6.277353014214321M-187.4818577705537,-78.63396886796438L-187.4818577705537,49.53514894915995M-187.4818577705537,49.53514894915995L-104.11932191178515,63.234488644726675" style="fill:none;stroke:rgb(0,0,0);stroke-width:1;stroke-linecap:round"></path><path d="M-226.5685443035963,-85.05725950894794L-199.33369226742963,-113.1022845324093L-201.3381376385059,-113.43168403731522zM-226.5685443035963,-85.05725950894794L-226.56854430359627,43.1118583081764L-199.33369226742963,-113.1022845324093z" style="fill:rgb(238,238,238); fill-opacity: 0.4"></path><path d="M-80.62269439211106,-0.3431843318546953L-80.62269439211106,-4.277943305080513L-43.18467452132331,-6.27735256944497z" style="fill:rgb(255,187,187); fill-opacity: 0.4"></path><path d="M-228.57298967467256,42.78245880327048L-226.56854430359627,43.1118583081764L-226.5685443035963,-85.05725950894794z" style="fill:rgb(238,238,238); fill-opacity: 0.4"></path><path d="M-82.22418049039777,1.3059422226620294L-80.62269439211106,-0.3431843318546953L-43.18467452132331,-6.27735256944497zM-80.62269439211106,-4.277943305080513L-82.22418049039777,-2.6288167505637903L-43.18467452132331,-6.27735256944497zM-82.22418049039777,-2.6288167505637903L-82.22418049039777,1.3059422226620294L-43.18467452132331,-6.27735256944497z" style="fill:rgb(255,187,187); fill-opacity: 0.4"></path><path d="M-104.11932191178515,63.234488644726675L-76.88446987561846,35.18946362126531L-76.88446987561848,-92.97965419585903zM-61.25524657236639,60.1317595685416L-39.57072318376609,37.80217245539916L43.79181267500245,51.50151215096587zM43.79181267500245,51.50151215096587L-39.57072318376609,37.80217245539916L-39.57072318376609,-76.70094374216477zM-228.57298967467256,-85.38665901385386L-226.5685443035963,-85.05725950894794L-201.3381376385059,-113.43168403731522z" style="fill:rgb(238,238,238); fill-opacity: 0.4"></path><path d="M43.79181267500245,-63.00160404659805L43.791812675002454,51.50151215096587M43.791812675002454,51.50151215096587L22.10728928640215,73.83109926410832" style="fill:none;stroke:rgb(0,0,0);stroke-width:1;stroke-linecap:round"></path><path d="M-228.57298967467256,-85.38665901385386L-228.57298967467256,42.78245880327048L-226.5685443035963,-85.05725950894794z" style="fill:rgb(238,238,238); fill-opacity: 0.4"></path><path d="M-76.88446987561849,-92.97965419585903L-104.11932191178516,-64.93462917239766M-104.11932191178516,-64.93462917239766L-104.11932191178515,63.234488644726675" style="fill:none;stroke:rgb(0,0,0);stroke-width:1;stroke-linecap:round"></path><path d="M-104.11932191178515,-64.93462917239766L-76.88446987561848,-92.97965419585903L-160.24700573438702,-106.67899389142575z" style="fill:rgb(238,238,238); fill-opacity: 0.4"></path><path d="M35.32092919458153,4.558853899153981L-48.041606664187015,-9.140485796412737M-48.041606664187015,-15.042624256251468L-48.041606664187015,-9.140485796412737M-48.041606664187015,-9.140485796412737L-50.443835811617085,-6.666795964637651M181.13701709976914,74.07206607652789L83.88072271575507,58.08950267951357M83.88072271575507,-56.41361351805033L83.88072271575507,58.08950267951357M83.88072271575507,58.08950267951357L62.19619932715477,80.41908979265604M35.32092919458153,-1.3432845606847497L-48.041606664187015,-15.042624256251468M-48.041606664187015,-15.042624256251468L-50.443835811617085,-12.568934424476382" style="fill:none;stroke:rgb(0,0,0);stroke-width:1;stroke-linecap:round"></path><path d="M-187.48185777055366,49.53514894915995L-104.11932191178515,63.234488644726675L-104.11932191178515,-64.93462917239766z" style="fill:rgb(238,238,238); fill-opacity: 0.4"></path><path d="M-48.041606664187015,-15.042624256251466L-48.041606664187015,-9.140485796412737L-50.443835811617085,-12.56893442447638zM-48.041606664187015,-9.140485796412737L-50.443835811617085,-6.666795964637651L-50.443835811617085,-12.56893442447638z" style="fill:rgb(153,221,255); fill-opacity: 0.4"></path><path d="M-61.2552465723664,-54.37135662902232L-61.25524657236639,60.1317595685416M-61.25524657236639,60.1317595685416L22.10728928640215,73.83109926410832M-50.443835811617085,-12.568934424476382L-50.443835811617085,-6.666795964637651M-50.443835811617085,-6.666795964637651L32.91870004715146,7.032543730929067" style="fill:none;stroke:rgb(0,0,0);stroke-width:1;stroke-linecap:round"></path><path d="M-39.57072318376609,37.80217245539916L-61.25524657236639,60.1317595685416L-61.2552465723664,-54.37135662902232z" style="fill:rgb(238,238,238); fill-opacity: 0.4"></path><path d="M-228.57298967467258,-85.38665901385386L-226.5685443035963,-85.05725950894794" style="fill:none;stroke:rgb(0,0,0);stroke-width:1;stroke-linecap:round"></path><path d="M-39.57072318376609,-76.70094374216477L-39.57072318376609,37.80217245539916L-61.2552465723664,-54.37135662902232z" style="fill:rgb(238,238,238); fill-opacity: 0.4"></path><path d="M43.79181267500245,-63.00160404659805L-39.5707231837661,-76.70094374216477M-39.5707231837661,-76.70094374216477L-61.2552465723664,-54.37135662902232M-50.443835811617085,-12.568934424476382L32.91870004715146,1.130405271090336" style="fill:none;stroke:rgb(0,0,0);stroke-width:1;stroke-linecap:round"></path><path d="M22.107289286402146,73.83109926410832L-61.25524657236639,60.1317595685416L43.79181267500245,51.50151215096587zM43.79181267500245,-63.00160404659806L43.79181267500245,51.50151215096587L-39.57072318376609,-76.70094374216477zM-187.4818577705537,-78.63396886796438L-104.11932191178515,-64.93462917239766L-160.24700573438702,-106.67899389142575z" style="fill:rgb(238,238,238); fill-opacity: 0.4"></path><path d="M35.320929194581524,4.5588538991539815L-48.041606664187015,-9.140485796412737L-48.041606664187015,-15.042624256251466z" style="fill:rgb(153,221,255); fill-opacity: 0.4"></path><path d="M-104.11932191178515,-64.93462917239766L-104.11932191178515,63.234488644726675L-76.88446987561848,-92.97965419585903z" style="fill:rgb(238,238,238); fill-opacity: 0.4"></path><path d="M-50.443835811617085,-6.666795964637651L-48.041606664187015,-9.140485796412737L35.320929194581524,4.5588538991539815z" style="fill:rgb(153,221,255); fill-opacity: 0.4"></path><path d="M-187.4818577705537,-78.63396886796438L-187.48185777055366,49.53514894915995L-104.11932191178515,-64.93462917239766z" style="fill:rgb(238,238,238); fill-opacity: 0.4"></path><path d="M-50.443835811617085,-12.56893442447638L32.918700047151454,1.1304052710903363L-48.041606664187015,-15.042624256251466zM-50.443835811617085,-12.56893442447638L-50.443835811617085,-6.666795964637651L32.918700047151454,1.1304052710903363z" style="fill:rgb(153,221,255); fill-opacity: 0.4"></path><path d="M22.107289286402146,73.83109926410832L43.79181267500245,51.50151215096587L43.79181267500245,-63.00160404659806z" style="fill:rgb(238,238,238); fill-opacity: 0.4"></path><path d="M-187.4818577705537,-78.63396886796438L-104.11932191178516,-64.93462917239766" style="fill:none;stroke:rgb(0,0,0);stroke-width:1;stroke-linecap:round"></path><path d="M35.320929194581524,-1.3432845606847494L35.320929194581524,4.5588538991539815L-48.041606664187015,-15.042624256251466zM32.918700047151454,7.032543730929067L-50.443835811617085,-6.666795964637651L35.320929194581524,4.5588538991539815zM32.918700047151454,1.1304052710903363L35.320929194581524,-1.3432845606847494L-48.041606664187015,-15.042624256251466zM-50.443835811617085,-6.666795964637651L32.918700047151454,7.032543730929067L32.918700047151454,1.1304052710903363z" style="fill:rgb(153,221,255); fill-opacity: 0.4"></path><path d="M62.196199327154794,80.41908979265602L83.8807227157551,58.08950267951357L181.13701709976914,74.07206607652788zM181.13701709976914,74.07206607652788L83.8807227157551,58.08950267951357L83.88072271575508,-56.41361351805035z" style="fill:rgb(238,238,238); fill-opacity: 0.4"></path><path d="M35.32092919458153,-1.3432845606847497L35.32092919458153,4.558853899153981M35.32092919458153,4.558853899153981L32.91870004715146,7.032543730929067M35.32093232623008,-1.3432841269733575L35.32093232623008,4.558854450130329M35.32093232623008,4.558854450130329L32.91870324442603,7.032544214327189M35.32093232623008,4.558854450130329L74.20872526949701,10.162516091899882M35.32092919458153,-1.3432845606847497L32.91870004715146,1.130405271090336M35.32093232623008,-1.3432841269733575L32.91870324442603,1.1304056372235014M35.32093232623008,-1.3432841269733575L74.20872526949701,10.162516091899882" style="fill:none;stroke:rgb(0,0,0);stroke-width:1;stroke-linecap:round"></path><path d="M32.918700047151454,7.032543730929067L35.320929194581524,4.5588538991539815L35.320929194581524,-1.3432845606847494z" style="fill:rgb(153,221,255); fill-opacity: 0.4"></path><path d="M35.32093099163633,-1.3432842653666672L35.32093099163633,4.5588541944720635L32.91870184420626,7.032544026247149z" style="fill:rgb(255,187,187); fill-opacity: 0.4"></path><path d="M22.107289286402146,-40.6720169334556L22.10728928640215,73.83109926410832" style="fill:none;stroke:rgb(0,0,0);stroke-width:1;stroke-linecap:round"></path><path d="M32.918700047151454,1.1304052710903363L32.918700047151454,7.032543730929067L35.320929194581524,-1.3432845606847494z" style="fill:rgb(153,221,255); fill-opacity: 0.4"></path><path d="M35.32093099163633,-1.3432842653666672L32.91870184420626,7.032544026247149L32.91870184420626,1.1304055664084183z" style="fill:rgb(255,187,187); fill-opacity: 0.4"></path><path d="M32.91870004715146,1.130405271090336L32.91870004715146,7.032543730929067M32.91870324442603,7.032544214327189L32.91870324442603,1.1304056372235014M32.91870324442603,7.032544214327189L74.20872526949701,10.162516091899882M181.13701709976914,-40.431050121036044L181.13701709976914,74.07206607652789M181.13701709976914,74.07206607652789L159.45249371116884,96.40165318967033" style="fill:none;stroke:rgb(0,0,0);stroke-width:1;stroke-linecap:round"></path><path d="M35.32093099163633,4.5588541944720635L35.32093099163633,-1.3432842653666672L74.20872383944726,10.162515885567553z" style="fill:rgb(255,187,187); fill-opacity: 0.4"></path><path d="M43.79181267500245,-63.00160404659805L22.107289286402146,-40.6720169334556" style="fill:none;stroke:rgb(0,0,0);stroke-width:1;stroke-linecap:round"></path><path d="M32.91870184420626,7.032544026247149L35.32093099163633,4.5588541944720635L74.20872383944726,10.162515885567553z" style="fill:rgb(255,187,187); fill-opacity: 0.4"></path><path d="M32.91870324442603,1.1304056372235014L74.20872526949701,10.162516091899882" style="fill:none;stroke:rgb(0,0,0);stroke-width:1;stroke-linecap:round"></path><path d="M35.32093099163633,-1.3432842653666672L32.91870184420626,1.1304055664084183L74.20872383944726,10.162515885567553zM32.91870184420626,1.1304055664084183L32.91870184420626,7.032544026247149L74.20872383944726,10.162515885567553z" style="fill:rgb(255,187,187); fill-opacity: 0.4"></path><path d="M396.46300160871897,9.14041075042676L394.45855623764265,8.811011245520842M394.45855623764265,6.843631758907929L394.45855623764265,8.811011245520842M394.45855623764265,8.811011245520842L298.9947325893823,107.11465980198994" style="fill:none;stroke:rgb(0,0,0);stroke-width:1;stroke-linecap:round"></path><path d="M396.4630016087189,9.140410750426762L394.4585562376426,8.811011245520843L394.4585562376426,6.84363175890793z" style="fill:rgb(238,238,238); fill-opacity: 0.4"></path><path d="M396.46300160871897,7.173031263813847L396.46300160871897,9.14041075042676M396.46300160871897,9.14041075042676L300.9991779604586,107.44405930689585M396.46300160871897,7.173031263813847L394.45855623764265,6.843631758907929M394.45855623764265,6.843631758907929L298.9947325893823,105.14728031537703" style="fill:none;stroke:rgb(0,0,0);stroke-width:1;stroke-linecap:round"></path><path d="M396.4630016087189,7.173031263813848L396.4630016087189,9.140410750426762L394.4585562376426,6.84363175890793zM-61.25524657236639,60.1317595685416L22.107289286402146,73.83109926410832L22.107289286402143,-40.6720169334556z" style="fill:rgb(238,238,238); fill-opacity: 0.4"></path><path d="M396.46300160871897,7.173031263813847L300.9991779604586,105.47667982028294" style="fill:none;stroke:rgb(0,0,0);stroke-width:1;stroke-linecap:round"></path><path d="M22.107289286402143,-40.6720169334556L43.79181267500245,-63.00160404659806L-39.57072318376609,-76.70094374216477zM-61.2552465723664,-54.37135662902232L-61.25524657236639,60.1317595685416L22.107289286402143,-40.6720169334556z" style="fill:rgb(238,238,238); fill-opacity: 0.4"></path><path d="M62.19619932715477,-34.084026404907895L62.19619932715477,80.41908979265604M62.19619932715477,80.41908979265604L159.45249371116884,96.40165318967033" style="fill:none;stroke:rgb(0,0,0);stroke-width:1;stroke-linecap:round"></path><path d="M-61.2552465723664,-54.37135662902232L22.107289286402143,-40.6720169334556L-39.57072318376609,-76.70094374216477zM83.8807227157551,58.08950267951357L62.196199327154794,80.41908979265602L62.19619932715478,-34.084026404907895zM83.88072271575508,-56.41361351805035L83.8807227157551,58.08950267951357L62.19619932715478,-34.084026404907895z" style="fill:rgb(238,238,238); fill-opacity: 0.4"></path><path d="M181.13701709976914,-40.431050121036044L83.88072271575507,-56.41361351805033M83.88072271575507,-56.41361351805033L62.19619932715477,-34.084026404907895" style="fill:none;stroke:rgb(0,0,0);stroke-width:1;stroke-linecap:round"></path><path d="M22.107289286402143,-40.6720169334556L22.107289286402146,73.83109926410832L43.79181267500245,-63.00160404659806z" style="fill:rgb(238,238,238); fill-opacity: 0.4"></path><path d="M-61.2552465723664,-54.37135662902232L22.107289286402146,-40.6720169334556" style="fill:none;stroke:rgb(0,0,0);stroke-width:1;stroke-linecap:round"></path><path d="M159.45249371116884,96.40165318967033L62.196199327154794,80.41908979265602L181.13701709976914,74.07206607652788zM181.13701709976914,-40.431050121036044L181.13701709976914,74.07206607652788L83.88072271575508,-56.41361351805035z" style="fill:rgb(238,238,238); fill-opacity: 0.4"></path><path d="M315.4308286787209,92.93713297988242L218.17453429470683,76.95456958286813M218.17453429470683,-23.85324564242947L218.17453429470683,76.95456958286813M218.17453429470683,76.95456958286813L202.59279464797063,92.9998294477454" style="fill:none;stroke:rgb(0,0,0);stroke-width:1;stroke-linecap:round"></path><path d="M159.45249371116884,96.40165318967033L181.13701709976914,74.07206607652788L181.13701709976914,-40.431050121036044zM202.59279464797063,92.9998294477454L218.17453429470683,76.95456958286813L315.4308286787209,92.93713297988242z" style="fill:rgb(238,238,238); fill-opacity: 0.4"></path><path d="M163.65962318583084,-6.284169758126942L66.40332880181678,-22.266733155141242M66.40332880181678,-26.20149212836706L66.40332880181678,-22.266733155141242M66.40332880181678,-22.266733155141242L64.80184270353008,-20.61760660062452M159.45249371116884,-18.101463007893592L159.45249371116884,96.40165318967033M163.65962318583084,-10.218928731352763L66.40332880181678,-26.20149212836706M66.40332880181678,-26.20149212836706L64.80184270353008,-24.55236557385034" style="fill:none;stroke:rgb(0,0,0);stroke-width:1;stroke-linecap:round"></path><path d="M66.40332880181681,-26.20149212836706L66.40332880181681,-22.266733155141235L64.8018427035301,-24.552365573850338z" style="fill:rgb(153,221,255); fill-opacity: 0.4"></path><path d="M315.4308286787209,92.93713297988242L218.17453429470683,76.95456958286813L218.17453429470683,-23.853245642429474z" style="fill:rgb(238,238,238); fill-opacity: 0.4"></path><path d="M181.13701709976914,-40.431050121036044L159.45249371116884,-18.101463007893592" style="fill:none;stroke:rgb(0,0,0);stroke-width:1;stroke-linecap:round"></path><path d="M66.40332880181681,-22.266733155141235L64.8018427035301,-20.617606600624512L64.8018427035301,-24.552365573850338z" style="fill:rgb(153,221,255); fill-opacity: 0.4"></path><path d="M64.80184270353008,-24.55236557385034L64.80184270353008,-20.61760660062452M64.80184270353008,-20.61760660062452L162.05813708754414,-4.635043203610219M64.80184270353008,-24.55236557385034L162.05813708754414,-8.56980217683604" style="fill:none;stroke:rgb(0,0,0);stroke-width:1;stroke-linecap:round"></path><path d="M62.196199327154794,80.41908979265602L159.45249371116884,96.40165318967033L159.45249371116884,-18.101463007893596zM159.45249371116884,-18.101463007893596L181.13701709976914,-40.431050121036044L83.88072271575508,-56.41361351805035z" style="fill:rgb(238,238,238); fill-opacity: 0.4"></path><path d="M315.4308286787209,-7.870682245415174L315.4308286787209,92.93713297988242M315.4308286787209,92.93713297988242L299.8490890319847,108.98239284475969M202.59279464797063,-7.807985777552197L202.59279464797063,92.9998294477454M202.59279464797063,92.9998294477454L299.8490890319847,108.98239284475969" style="fill:none;stroke:rgb(0,0,0);stroke-width:1;stroke-linecap:round"></path><path d="M62.19619932715478,-34.084026404907895L62.196199327154794,80.41908979265602L159.45249371116884,-18.101463007893596z" style="fill:rgb(238,238,238); fill-opacity: 0.4"></path><path d="M308.10535349121795,58.10524675994574L210.84905910720389,42.12268336293144M210.84905910720389,40.15530387631853L210.84905910720389,42.12268336293144M210.84905910720389,42.12268336293144L210.0483160580605,42.947246640189796" style="fill:none;stroke:rgb(0,0,0);stroke-width:1;stroke-linecap:round"></path><path d="M62.19619932715478,-34.084026404907895L159.45249371116884,-18.101463007893596L83.88072271575508,-56.41361351805035z" style="fill:rgb(238,238,238); fill-opacity: 0.4"></path><path d="M163.65962318583087,-6.2841697581269385L66.40332880181681,-22.266733155141235L66.40332880181681,-26.20149212836706z" style="fill:rgb(153,221,255); fill-opacity: 0.4"></path><path d="M308.10535349121795,56.13786727333283L210.84905910720389,40.15530387631853M210.84905910720389,40.15530387631853L210.0483160580605,40.97986715357689" style="fill:none;stroke:rgb(0,0,0);stroke-width:1;stroke-linecap:round"></path><path d="M210.84905910720389,40.15530387631853L210.84905910720389,42.12268336293144L210.04831605806052,40.97986715357689zM64.8018427035301,-20.617606600624512L66.40332880181681,-22.266733155141235L163.65962318583087,-6.2841697581269385zM210.84905910720389,42.12268336293144L210.04831605806052,42.947246640189796L210.04831605806052,40.97986715357689z" style="fill:rgb(153,221,255); fill-opacity: 0.4"></path><path d="M210.0483160580605,40.97986715357689L210.0483160580605,42.947246640189796M210.0483160580605,42.947246640189796L307.30461044207453,58.929810037204106M210.0483160580605,40.97986715357689L307.30461044207453,56.96243055059119" style="fill:none;stroke:rgb(0,0,0);stroke-width:1;stroke-linecap:round"></path><path d="M218.17453429470683,76.95456958286813L202.59279464797063,92.9998294477454L202.59279464797063,-7.807985777552202z" style="fill:rgb(238,238,238); fill-opacity: 0.4"></path><path d="M64.8018427035301,-24.552365573850338L162.05813708754414,-8.569802176836037L66.40332880181681,-26.20149212836706zM64.8018427035301,-24.552365573850338L64.8018427035301,-20.617606600624512L162.05813708754414,-8.569802176836037z" style="fill:rgb(153,221,255); fill-opacity: 0.4"></path><path d="M62.19619932715477,-34.084026404907895L159.45249371116884,-18.101463007893592" style="fill:none;stroke:rgb(0,0,0);stroke-width:1;stroke-linecap:round"></path><path d="M218.17453429470683,-23.853245642429474L218.17453429470683,76.95456958286813L202.59279464797063,-7.807985777552202zM159.45249371116884,-18.101463007893596L159.45249371116884,96.40165318967033L181.13701709976914,-40.431050121036044z" style="fill:rgb(238,238,238); fill-opacity: 0.4"></path><path d="M315.4308286787209,-7.870682245415174L218.17453429470683,-23.85324564242947M218.17453429470683,-23.85324564242947L202.59279464797063,-7.807985777552197" style="fill:none;stroke:rgb(0,0,0);stroke-width:1;stroke-linecap:round"></path><path d="M299.8490890319847,108.98239284475972L202.59279464797063,92.9998294477454L315.4308286787209,92.93713297988242z" style="fill:rgb(238,238,238); fill-opacity: 0.4"></path><path d="M308.10535349121795,58.10524675994574L210.84905910720389,42.12268336293144L210.84905910720389,40.15530387631853zM210.04831605806052,42.947246640189796L210.84905910720389,42.12268336293144L308.10535349121795,58.10524675994574zM163.65962318583087,-10.21892873135276L163.65962318583087,-6.2841697581269385L66.40332880181681,-26.20149212836706zM210.04831605806052,40.97986715357689L307.3046104420746,56.9624305505912L210.84905910720389,40.15530387631853zM210.04831605806052,40.97986715357689L210.04831605806052,42.947246640189796L307.3046104420746,56.9624305505912zM162.05813708754414,-4.635043203610214L64.8018427035301,-20.617606600624512L163.65962318583087,-6.2841697581269385zM162.05813708754414,-8.569802176836037L163.65962318583087,-10.21892873135276L66.40332880181681,-26.20149212836706zM64.8018427035301,-20.617606600624512L162.05813708754414,-4.635043203610214L162.05813708754414,-8.569802176836037z" style="fill:rgb(153,221,255); fill-opacity: 0.4"></path><path d="M298.9947325893823,107.11465980198994L394.4585562376426,8.811011245520843L396.4630016087189,9.140410750426762z" style="fill:rgb(238,238,238); fill-opacity: 0.4"></path><path d="M411.02130874178783,42.01847663096334L409.01686337071163,41.68907712605741M409.01686337071163,39.72169763944451L409.01686337071163,41.68907712605741M409.01686337071163,41.68907712605741L364.61424029936524,87.41257411769021" style="fill:none;stroke:rgb(0,0,0);stroke-width:1;stroke-linecap:round"></path><path d="M315.4308286787209,-7.870682245415168L315.4308286787209,92.93713297988242L218.17453429470683,-23.853245642429474zM394.4585562376426,6.84363175890793L394.4585562376426,8.811011245520843L298.9947325893823,105.14728031537703zM411.02130874178783,42.01847663096335L409.0168633707115,41.68907712605742L409.0168633707115,39.72169763944451z" style="fill:rgb(238,238,238); fill-opacity: 0.4"></path><path d="M411.02130874178783,40.05109714435043L411.02130874178783,42.01847663096334M411.02130874178783,42.01847663096334L366.61868567044155,87.74197362259613" style="fill:none;stroke:rgb(0,0,0);stroke-width:1;stroke-linecap:round"></path><path d="M300.9991779604586,107.44405930689585L396.4630016087189,9.140410750426762L396.4630016087189,7.173031263813848z" style="fill:rgb(238,238,238); fill-opacity: 0.4"></path><path d="M411.02130874178783,40.05109714435043L409.01686337071163,39.72169763944451M409.01686337071163,39.72169763944451L364.61424029936524,85.4451946310773" style="fill:none;stroke:rgb(0,0,0);stroke-width:1;stroke-linecap:round"></path><path d="M411.02130874178783,40.051097144350436L411.02130874178783,42.01847663096335L409.0168633707115,39.72169763944451zM300.9991779604586,105.47667982028294L396.4630016087189,7.173031263813848L394.4585562376426,6.84363175890793z" style="fill:rgb(238,238,238); fill-opacity: 0.4"></path><path d="M411.02130874178783,40.05109714435043L366.61868567044155,85.77459413598324M163.65962400273307,-10.21892803066203L205.04050370106143,25.675412415055916M163.65962400273307,-6.284169057436213L205.04050370106143,25.675412415055916M162.05813790444637,-4.635042502919488L205.04050370106143,25.675412415055916M162.05813790444637,-8.569801476145305L205.04050370106143,25.675412415055916M163.65962400273307,-10.21892803066203L163.65962400273307,-6.284169057436213M163.65962400273307,-6.284169057436213L162.05813790444637,-4.635042502919488M163.65962318583084,-10.218928731352763L163.65962318583084,-6.284169758126942M163.65962318583084,-6.284169758126942L162.05813708754414,-4.635043203610219" style="fill:none;stroke:rgb(0,0,0);stroke-width:1;stroke-linecap:round"></path><path d="M308.10535349121795,56.13786727333283L308.10535349121795,58.10524675994574L210.84905910720389,40.15530387631853z" style="fill:rgb(153,221,255); fill-opacity: 0.4"></path><path d="M163.65962400800274,-6.284169623015739L163.65962400800274,-10.218928596241561L205.04050378206318,25.675412605495264z" style="fill:rgb(255,187,187); fill-opacity: 0.4"></path><path d="M307.3046104420746,58.929810037204106L210.04831605806052,42.947246640189796L308.10535349121795,58.10524675994574z" style="fill:rgb(153,221,255); fill-opacity: 0.4"></path><path d="M162.058137909716,-4.635043068499015L163.65962400800274,-6.284169623015739L205.04050378206318,25.675412605495264z" style="fill:rgb(255,187,187); fill-opacity: 0.4"></path><path d="M307.3046104420746,56.9624305505912L308.10535349121795,56.13786727333283L210.84905910720389,40.15530387631853z" style="fill:rgb(153,221,255); fill-opacity: 0.4"></path><path d="M163.65962400273307,-10.21892803066203L162.05813790444637,-8.569801476145305M163.65962318583084,-10.218928731352763L162.05813708754414,-8.56980217683604" style="fill:none;stroke:rgb(0,0,0);stroke-width:1;stroke-linecap:round"></path><path d="M162.05813708754414,-4.635043203610214L163.65962318583087,-6.2841697581269385L163.65962318583087,-10.21892873135276z" style="fill:rgb(153,221,255); fill-opacity: 0.4"></path><path d="M163.65962400800274,-10.218928596241561L163.65962400800274,-6.284169623015739L162.058137909716,-4.635043068499015z" style="fill:rgb(255,187,187); fill-opacity: 0.4"></path><path d="M210.04831605806052,42.947246640189796L307.3046104420746,58.929810037204106L307.3046104420746,56.9624305505912z" style="fill:rgb(153,221,255); fill-opacity: 0.4"></path><path d="M163.65962400800274,-10.218928596241561L162.058137909716,-8.569802041724836L205.04050378206318,25.675412605495264z" style="fill:rgb(255,187,187); fill-opacity: 0.4"></path><path d="M299.8490890319847,108.98239284475972L315.4308286787209,92.93713297988242L315.4308286787209,-7.870682245415168z" style="fill:rgb(238,238,238); fill-opacity: 0.4"></path><path d="M162.058137909716,-8.569802041724836L162.058137909716,-4.635043068499015L205.04050378206318,25.675412605495264z" style="fill:rgb(255,187,187); fill-opacity: 0.4"></path><path d="M162.05813708754414,-8.569802176836037L162.05813708754414,-4.635043203610214L163.65962318583087,-10.21892873135276z" style="fill:rgb(153,221,255); fill-opacity: 0.4"></path><path d="M163.65962400800274,-10.218928596241561L162.058137909716,-4.635043068499015L162.058137909716,-8.569802041724836z" style="fill:rgb(255,187,187); fill-opacity: 0.4"></path><path d="M162.05813790444637,-4.635042502919488L162.05813790444637,-8.569801476145305M162.05813708754414,-8.56980217683604L162.05813708754414,-4.635043203610219M299.8490890319847,8.174577619462097L299.8490890319847,108.98239284475969M308.10535349121795,56.13786727333283L308.10535349121795,58.10524675994574M308.10535349121795,58.10524675994574L307.30461044207453,58.929810037204106M308.1053677144812,56.13786966382797L308.1053677144812,58.10524915044088M308.1053677144812,58.10524915044088L307.3046246653378,58.92981242769925M308.1053677144812,58.10524915044088L348.12725415886524,73.12505583625718M308.10535349121795,56.13786727333283L307.30461044207453,56.96243055059119M308.1053677144812,56.13786966382797L307.3046246653378,56.962432941086334M308.1053677144812,56.13786966382797L348.12725415886524,73.12505583625718" style="fill:none;stroke:rgb(0,0,0);stroke-width:1;stroke-linecap:round"></path><path d="M307.3046104420746,58.929810037204106L308.10535349121795,58.10524675994574L308.10535349121795,56.13786727333283z" style="fill:rgb(153,221,255); fill-opacity: 0.4"></path><path d="M308.10535431338985,56.13786740844403L308.10535431338985,58.10524689505694L307.3046112642465,58.9298101723153z" style="fill:rgb(255,187,187); fill-opacity: 0.4"></path><path d="M307.3046104420746,56.9624305505912L307.3046104420746,58.929810037204106L308.10535349121795,56.13786727333283z" style="fill:rgb(153,221,255); fill-opacity: 0.4"></path><path d="M308.10535431338985,56.13786740844403L307.3046112642465,58.9298101723153L307.3046112642465,56.9624306857024z" style="fill:rgb(255,187,187); fill-opacity: 0.4"></path><path d="M307.30461044207453,56.96243055059119L307.30461044207453,58.929810037204106M307.3046246653378,58.92981242769925L307.3046246653378,56.962432941086334M307.3046246653378,58.92981242769925L348.12725415886524,73.12505583625718M307.3046246653378,56.962432941086334L348.12725415886524,73.12505583625718" style="fill:none;stroke:rgb(0,0,0);stroke-width:1;stroke-linecap:round"></path><path d="M202.59279464797063,92.9998294477454L299.8490890319847,108.98239284475972L299.8490890319847,8.174577619462104z" style="fill:rgb(238,238,238); fill-opacity: 0.4"></path><path d="M308.10535431338985,58.10524689505694L308.10535431338985,56.13786740844403L348.12724074261894,73.12505378450214zM307.3046112642465,58.9298101723153L308.10535431338985,58.10524689505694L348.12724074261894,73.12505378450214zM308.10535431338985,56.13786740844403L307.3046112642465,56.9624306857024L348.12724074261894,73.12505378450214zM307.3046112642465,56.9624306857024L307.3046112642465,58.9298101723153L348.12724074261894,73.12505378450214z" style="fill:rgb(255,187,187); fill-opacity: 0.4"></path><path d="M202.59279464797063,-7.807985777552202L202.59279464797063,92.9998294477454L299.8490890319847,8.174577619462104z" style="fill:rgb(238,238,238); fill-opacity: 0.4"></path><path d="M315.4308286787209,-7.870682245415174L299.8490890319847,8.174577619462097" style="fill:none;stroke:rgb(0,0,0);stroke-width:1;stroke-linecap:round"></path><path d="M299.8490890319847,8.174577619462104L315.4308286787209,-7.870682245415168L218.17453429470683,-23.853245642429474zM202.59279464797063,-7.807985777552202L299.8490890319847,8.174577619462104L218.17453429470683,-23.853245642429474z" style="fill:rgb(238,238,238); fill-opacity: 0.4"></path><path d="M202.59279464797063,-7.807985777552197L299.8490890319847,8.174577619462097" style="fill:none;stroke:rgb(0,0,0);stroke-width:1;stroke-linecap:round"></path><path d="M364.6142402993653,87.41257411769021L409.0168633707115,41.68907712605742L411.02130874178783,42.01847663096335zM409.0168633707115,39.72169763944451L409.0168633707115,41.68907712605742L364.6142402993653,85.4451946310773zM366.6186856704416,87.74197362259615L411.02130874178783,42.01847663096335L411.02130874178783,40.051097144350436zM366.6186856704416,85.77459413598324L411.02130874178783,40.051097144350436L409.0168633707115,39.72169763944451zM299.8490890319847,8.174577619462104L299.8490890319847,108.98239284475972L315.4308286787209,-7.870682245415168z" style="fill:rgb(238,238,238); fill-opacity: 0.4"></path><path d="M433.30743547632306,66.93883839722345L431.30299010524675,66.60943889231751M431.30299010524675,64.64205940570461L431.30299010524675,66.60943889231751M431.30299010524675,66.60943889231751L422.50592840788204,75.66819254766699" style="fill:none;stroke:rgb(0,0,0);stroke-width:1;stroke-linecap:round"></path><path d="M433.307435476323,66.93883839722344L431.30299010524675,66.60943889231751L431.30299010524675,64.6420594057046z" style="fill:rgb(238,238,238); fill-opacity: 0.4"></path><path d="M433.30743547632306,64.97145891061054L433.30743547632306,66.93883839722345M433.30743547632306,66.93883839722345L424.51037377895835,75.9975920525729M433.30743547632306,64.97145891061054L431.30299010524675,64.64205940570461M431.30299010524675,64.64205940570461L422.50592840788204,73.70081306105408" style="fill:none;stroke:rgb(0,0,0);stroke-width:1;stroke-linecap:round"></path><path d="M433.307435476323,64.97145891061054L433.307435476323,66.93883839722344L431.30299010524675,64.6420594057046z" style="fill:rgb(238,238,238); fill-opacity: 0.4"></path><path d="M433.30743547632306,64.97145891061054L424.51037377895835,74.03021256596" style="fill:none;stroke:rgb(0,0,0);stroke-width:1;stroke-linecap:round"></path><path d="M422.50592840788204,75.66819254766698L431.30299010524675,66.60943889231751L433.307435476323,66.93883839722344zM431.30299010524675,64.6420594057046L431.30299010524675,66.60943889231751L422.50592840788204,73.70081306105408zM424.5103737789583,75.9975920525729L433.307435476323,66.93883839722344L433.307435476323,64.97145891061054zM424.5103737789583,74.03021256596L433.307435476323,64.97145891061054L431.30299010524675,64.6420594057046zM409.0168633707115,41.68907712605742L364.6142402993653,87.41257411769021L364.6142402993653,85.4451946310773zM366.6186856704416,87.74197362259615L364.6142402993653,87.41257411769021L411.02130874178783,42.01847663096335zM364.6142402993653,85.4451946310773L366.6186856704416,85.77459413598324L409.0168633707115,39.72169763944451zM366.6186856704416,85.77459413598324L366.6186856704416,87.74197362259615L411.02130874178783,40.051097144350436zM431.30299010524675,66.60943889231751L422.50592840788204,75.66819254766698L422.50592840788204,73.70081306105408zM424.5103737789583,75.9975920525729L422.50592840788204,75.66819254766698L433.307435476323,66.93883839722344zM422.50592840788204,73.70081306105408L424.5103737789583,74.03021256596L431.30299010524675,64.6420594057046zM424.5103737789583,74.03021256596L424.5103737789583,75.9975920525729L433.307435476323,64.97145891061054zM394.4585562376426,8.811011245520843L298.9947325893823,107.11465980198994L298.9947325893823,105.14728031537703zM300.9991779604586,107.44405930689585L298.9947325893823,107.11465980198994L396.4630016087189,9.140410750426762z" style="fill:rgb(238,238,238); fill-opacity: 0.4"></path><path d="M375.42702585568935,75.5075062787955L425.37251201217964,70.58211522062223M375.42702585568935,77.4748857654084L425.37251201217964,70.58211522062223M374.62628204289786,78.29944982903159L425.37251201217964,70.58211522062223M374.62628204289786,76.33207034241869L425.37251201217964,70.58211522062223" style="fill:none;stroke:rgb(0,0,0);stroke-width:1;stroke-linecap:round"></path><path d="M298.9947325893823,105.14728031537703L300.9991779604586,105.47667982028294L394.4585562376426,6.84363175890793zM300.9991779604586,105.47667982028294L300.9991779604586,107.44405930689585L396.4630016087189,7.173031263813848z" style="fill:rgb(238,238,238); fill-opacity: 0.4"></path><path d="M422.50592840788204,73.70081306105408L422.50592840788204,75.66819254766699M422.50592840788204,75.66819254766699L424.51037377895835,75.9975920525729M424.51037377895835,74.03021256596L424.51037377895835,75.9975920525729" style="fill:none;stroke:rgb(0,0,0);stroke-width:1;stroke-linecap:round"></path><path d="M422.50592840788204,75.66819254766698L424.5103737789583,75.9975920525729L424.5103737789583,74.03021256596zM422.50592840788204,73.70081306105408L422.50592840788204,75.66819254766698L424.5103737789583,74.03021256596z" style="fill:rgb(238,238,238); fill-opacity: 0.4"></path><path d="M422.50592840788204,73.70081306105408L424.51037377895835,74.03021256596" style="fill:none;stroke:rgb(0,0,0);stroke-width:1;stroke-linecap:round"></path><path d="M375.42701236992565,77.47488364487288L375.42701236992565,75.50750415825996L425.37249853998514,70.58211298168533zM374.62626932078234,78.29944692213122L375.42701236992565,77.47488364487288L425.37249853998514,70.58211298168533zM375.42701236992565,75.50750415825996L374.62626932078234,76.33206743551831L425.37249853998514,70.58211298168533zM374.62626932078234,76.33206743551831L374.62626932078234,78.29944692213122L425.37249853998514,70.58211298168533z" style="fill:rgb(255,187,187); fill-opacity: 0.4"></path><path d="M376.4292350554638,77.63958339732582L374.42478968438746,77.3101838924199M374.42478968438746,75.34280440580699L374.42478968438746,77.3101838924199M374.42478968438746,77.3101838924199L373.62404663524416,78.13474716967826M375.42702585568935,75.5075062787955L375.42702585568935,77.4748857654084M375.42702585568935,77.4748857654084L374.62628204289786,78.29944982903159" style="fill:none;stroke:rgb(0,0,0);stroke-width:1;stroke-linecap:round"></path><path d="M376.4292350554638,77.63958339732584L374.42478968438746,77.31018389241991L374.42478968438746,75.342804405807z" style="fill:rgb(153,221,255); fill-opacity: 0.4"></path><path d="M376.4292350554638,75.67220391071292L376.4292350554638,77.63958339732582M376.4292350554638,77.63958339732582L375.62849200632047,78.46414667458419" style="fill:none;stroke:rgb(0,0,0);stroke-width:1;stroke-linecap:round"></path><path d="M373.62404663524416,78.13474716967828L374.42478968438746,77.31018389241991L376.4292350554638,77.63958339732584z" style="fill:rgb(153,221,255); fill-opacity: 0.4"></path><path d="M376.4292350554638,75.67220391071292L374.42478968438746,75.34280440580699M374.42478968438746,75.34280440580699L373.62404663524416,76.16736768306536" style="fill:none;stroke:rgb(0,0,0);stroke-width:1;stroke-linecap:round"></path><path d="M376.4292350554638,75.67220391071292L376.4292350554638,77.63958339732584L374.42478968438746,75.342804405807zM374.42478968438746,75.342804405807L374.42478968438746,77.31018389241991L373.62404663524416,76.16736768306536z" style="fill:rgb(153,221,255); fill-opacity: 0.4"></path><path d="M375.42702585568935,75.5075062787955L374.62628204289786,76.33207034241869" style="fill:none;stroke:rgb(0,0,0);stroke-width:1;stroke-linecap:round"></path><path d="M375.42701236992565,75.50750415825996L375.42701236992565,77.47488364487288L374.62626932078234,78.29944692213122z" style="fill:rgb(255,187,187); fill-opacity: 0.4"></path><path d="M374.42478968438746,77.31018389241991L373.62404663524416,78.13474716967828L373.62404663524416,76.16736768306536z" style="fill:rgb(153,221,255); fill-opacity: 0.4"></path><path d="M376.4292350554638,75.67220391071292L375.62849200632047,76.49676718797127" style="fill:none;stroke:rgb(0,0,0);stroke-width:1;stroke-linecap:round"></path><path d="M375.62849200632047,78.4641466745842L376.4292350554638,77.63958339732584L376.4292350554638,75.67220391071292zM375.62849200632047,78.4641466745842L373.62404663524416,78.13474716967828L376.4292350554638,77.63958339732584z" style="fill:rgb(153,221,255); fill-opacity: 0.4"></path><path d="M373.62404663524416,76.16736768306536L373.62404663524416,78.13474716967826M373.62404663524416,78.13474716967826L375.62849200632047,78.46414667458419" style="fill:none;stroke:rgb(0,0,0);stroke-width:1;stroke-linecap:round"></path><path d="M375.62849200632047,76.4967671879713L376.4292350554638,75.67220391071292L374.42478968438746,75.342804405807z" style="fill:rgb(153,221,255); fill-opacity: 0.4"></path><path d="M375.42701236992565,75.50750415825996L374.62626932078234,78.29944692213122L374.62626932078234,76.33206743551831z" style="fill:rgb(255,187,187); fill-opacity: 0.4"></path><path d="M374.62628204289786,78.29944982903159L374.62628204289786,76.33207034241869" style="fill:none;stroke:rgb(0,0,0);stroke-width:1;stroke-linecap:round"></path><path d="M373.62404663524416,76.16736768306536L375.62849200632047,76.4967671879713L374.42478968438746,75.342804405807zM375.62849200632047,76.4967671879713L375.62849200632047,78.4641466745842L376.4292350554638,75.67220391071292z" style="fill:rgb(153,221,255); fill-opacity: 0.4"></path><path d="M375.62849200632047,76.49676718797127L375.62849200632047,78.46414667458419" style="fill:none;stroke:rgb(0,0,0);stroke-width:1;stroke-linecap:round"></path><path d="M373.62404663524416,78.13474716967828L375.62849200632047,78.4641466745842L375.62849200632047,76.4967671879713zM373.62404663524416,76.16736768306536L373.62404663524416,78.13474716967828L375.62849200632047,76.4967671879713z" style="fill:rgb(153,221,255); fill-opacity: 0.4"></path><path d="M373.62404663524416,76.16736768306536L375.62849200632047,76.49676718797127M320.6916239365507,84.00170954622452L375.05585699734524,69.11562636076481M320.6916239365507,85.96908903283743L375.05585699734524,69.11562636076481M319.8908808874073,86.7936523100958L375.05585699734524,69.11562636076481M319.8908808874073,84.82627282348288L375.05585699734524,69.11562636076481" style="fill:none;stroke:rgb(0,0,0);stroke-width:1;stroke-linecap:round"></path><path d="M320.6916093808918,85.96908801402397L320.6916093808918,84.00170852741105L375.0558433895023,69.11562450054717zM319.89086633174844,86.79365129128233L320.6916093808918,85.96908801402397L375.0558433895023,69.11562450054717zM320.6916093808918,84.00170852741105L319.89086633174844,84.82627180466942L375.0558433895023,69.11562450054717zM319.89086633174844,84.82627180466942L319.89086633174844,86.79365129128233L375.0558433895023,69.11562450054717z" style="fill:rgb(255,187,187); fill-opacity: 0.4"></path><path d="M321.6938320664299,86.13378776647693L319.6893866953536,85.804388261571M319.6893866953536,83.8370087749581L319.6893866953536,85.804388261571M319.6893866953536,85.804388261571L318.88864364621026,86.62895153882937M320.6916239365507,84.00170954622452L320.6916239365507,85.96908903283743M320.6916239365507,85.96908903283743L319.8908808874073,86.7936523100958" style="fill:none;stroke:rgb(0,0,0);stroke-width:1;stroke-linecap:round"></path><path d="M321.69383206642993,86.13378776647693L319.6893866953536,85.804388261571L319.6893866953536,83.8370087749581z" style="fill:rgb(153,221,255); fill-opacity: 0.4"></path><path d="M321.6938320664299,84.16640827986402L321.6938320664299,86.13378776647693M321.6938320664299,86.13378776647693L320.89308901728657,86.95835104373529" style="fill:none;stroke:rgb(0,0,0);stroke-width:1;stroke-linecap:round"></path><path d="M318.88864364621026,86.62895153882937L319.6893866953536,85.804388261571L321.69383206642993,86.13378776647693z" style="fill:rgb(153,221,255); fill-opacity: 0.4"></path><path d="M321.6938320664299,84.16640827986402L319.6893866953536,83.8370087749581M319.6893866953536,83.8370087749581L318.88864364621026,84.66157205221646" style="fill:none;stroke:rgb(0,0,0);stroke-width:1;stroke-linecap:round"></path><path d="M321.69383206642993,84.16640827986402L321.69383206642993,86.13378776647693L319.6893866953536,83.8370087749581zM319.6893866953536,83.8370087749581L319.6893866953536,85.804388261571L318.88864364621026,84.66157205221646z" style="fill:rgb(153,221,255); fill-opacity: 0.4"></path><path d="M320.6916239365507,84.00170954622452L319.8908808874073,84.82627282348288" style="fill:none;stroke:rgb(0,0,0);stroke-width:1;stroke-linecap:round"></path><path d="M320.6916093808918,84.00170852741105L320.6916093808918,85.96908801402397L319.89086633174844,86.79365129128233z" style="fill:rgb(255,187,187); fill-opacity: 0.4"></path><path d="M319.6893866953536,85.804388261571L318.88864364621026,86.62895153882937L318.88864364621026,84.66157205221646z" style="fill:rgb(153,221,255); fill-opacity: 0.4"></path><path d="M321.6938320664299,84.16640827986402L320.89308901728657,84.99097155712238" style="fill:none;stroke:rgb(0,0,0);stroke-width:1;stroke-linecap:round"></path><path d="M320.89308901728657,86.95835104373528L321.69383206642993,86.13378776647693L321.69383206642993,84.16640827986402zM320.89308901728657,86.95835104373528L318.88864364621026,86.62895153882937L321.69383206642993,86.13378776647693z" style="fill:rgb(153,221,255); fill-opacity: 0.4"></path><path d="M318.88864364621026,84.66157205221646L318.88864364621026,86.62895153882937M318.88864364621026,86.62895153882937L320.89308901728657,86.95835104373529" style="fill:none;stroke:rgb(0,0,0);stroke-width:1;stroke-linecap:round"></path><path d="M320.89308901728657,84.99097155712236L321.69383206642993,84.16640827986402L319.6893866953536,83.8370087749581z" style="fill:rgb(153,221,255); fill-opacity: 0.4"></path><path d="M320.6916093808918,84.00170852741105L319.89086633174844,86.79365129128233L319.89086633174844,84.82627180466942z" style="fill:rgb(255,187,187); fill-opacity: 0.4"></path><path d="M319.8908808874073,86.7936523100958L319.8908808874073,84.82627282348288" style="fill:none;stroke:rgb(0,0,0);stroke-width:1;stroke-linecap:round"></path><path d="M318.88864364621026,84.66157205221646L320.89308901728657,84.99097155712236L319.6893866953536,83.8370087749581zM320.89308901728657,84.99097155712236L320.89308901728657,86.95835104373528L321.69383206642993,84.16640827986402z" style="fill:rgb(153,221,255); fill-opacity: 0.4"></path><path d="M320.89308901728657,84.99097155712238L320.89308901728657,86.95835104373529" style="fill:none;stroke:rgb(0,0,0);stroke-width:1;stroke-linecap:round"></path><path d="M318.88864364621026,86.62895153882937L320.89308901728657,86.95835104373528L320.89308901728657,84.99097155712236zM318.88864364621026,84.66157205221646L318.88864364621026,86.62895153882937L320.89308901728657,84.99097155712236z" style="fill:rgb(153,221,255); fill-opacity: 0.4"></path><path d="M318.88864364621026,84.66157205221646L320.89308901728657,84.99097155712238M364.61424029936524,85.4451946310773L364.61424029936524,87.41257411769021M364.61424029936524,87.41257411769021L366.61868567044155,87.74197362259613M366.61868567044155,85.77459413598324L366.61868567044155,87.74197362259613" style="fill:none;stroke:rgb(0,0,0);stroke-width:1;stroke-linecap:round"></path><path d="M364.6142402993653,87.41257411769021L366.6186856704416,87.74197362259615L366.6186856704416,85.77459413598324zM364.6142402993653,85.4451946310773L364.6142402993653,87.41257411769021L366.6186856704416,85.77459413598324z" style="fill:rgb(238,238,238); fill-opacity: 0.4"></path><path d="M364.61424029936524,85.4451946310773L366.61868567044155,85.77459413598324M298.9947325893823,105.14728031537703L298.9947325893823,107.11465980198994M298.9947325893823,107.11465980198994L300.9991779604586,107.44405930689585M300.9991779604586,105.47667982028294L300.9991779604586,107.44405930689585" style="fill:none;stroke:rgb(0,0,0);stroke-width:1;stroke-linecap:round"></path><path d="M298.9947325893823,107.11465980198994L300.9991779604586,107.44405930689585L300.9991779604586,105.47667982028294zM298.9947325893823,105.14728031537703L298.9947325893823,107.11465980198994L300.9991779604586,105.47667982028294z" style="fill:rgb(238,238,238); fill-opacity: 0.4"></path><path d="M298.9947325893823,105.14728031537703L300.9991779604586,105.47667982028294" style="fill:none;stroke:rgb(0,0,0);stroke-width:1;stroke-linecap:round"></path></svg>